<svg xmlns="http://www.w3.org/2000/svg" width="66.055" height="76.367" viewBox="0 0 66.055 76.367">
  <g id="Group_3" data-name="Group 3" transform="translate(-93.629 175.367)">
    <path id="Path_1" data-name="Path 1" d="M7,56.1,38.8,75,70.6,56.1V19.5L38.8,1" transform="translate(88 -175)" fill="none" stroke="#fff" stroke-linecap="round" stroke-linejoin="round" stroke-width="2"/>
    <path id="Path_2" data-name="Path 2" d="M7,56.15V19.517L38.8,1" transform="translate(88 -175)" fill="none" stroke="#fff" stroke-linecap="round" stroke-linejoin="round" stroke-width="2" stroke-dasharray="3 5"/>
    <path id="Path_3" data-name="Path 3" d="M7.443,61.4l5.233-2.818" transform="translate(87.96 -180.301)" fill="none" stroke="#fff" stroke-linecap="round" stroke-linejoin="round" stroke-width="1"/>
    <path id="Path_4" data-name="Path 4" d="M64.581,54.152,76.256,61" transform="translate(82.744 -179.896)" fill="none" stroke="#fff" stroke-linecap="round" stroke-linejoin="round" stroke-width="1"/>
    <path id="Path_5" data-name="Path 5" d="M13.2,57.772,23.265,64.02m0-12.015a2.529,2.529,0,0,1,2.013,2.4v8.17" transform="translate(87.435 -179.702)" fill="none" stroke="#fff" stroke-linecap="round" stroke-linejoin="round" stroke-width="1"/>
    <path id="Path_6" data-name="Path 6" d="M24.717,62.681,44.845,50.6m0,0V42.554c-.111-2.058.081-5.233,2.013-5.233V49.4Z" transform="translate(86.382 -178.359)" fill="none" stroke="#fff" stroke-linecap="round" stroke-linejoin="round" stroke-width="1"/>
    <path id="Path_7" data-name="Path 7" d="M26.489,53.958,44.6,43.079" transform="translate(86.221 -178.878)" fill="none" stroke="#fff" stroke-linecap="round" stroke-linejoin="round" stroke-width="1"/>
    <path id="Path_8" data-name="Path 8" d="M46.013,42.039l-8.008-5.161" transform="translate(85.17 -178.304)" fill="none" stroke="#fff" stroke-linecap="round" stroke-linejoin="round" stroke-width="1"/>
    <path id="Path_9" data-name="Path 9" d="M26.489,31.563l1.525,11.07,7.331,4.629.805,7.648" transform="translate(86.221 -177.825)" fill="none" stroke="#fff" stroke-linecap="round" stroke-linejoin="round" stroke-width="1"/>
    <path id="Path_10" data-name="Path 10" d="M18.959,47.262,36.269,36.8m.805-5.233L46.333,36.8" transform="translate(86.908 -177.82)" fill="none" stroke="#fff" stroke-linecap="round" stroke-linejoin="round" stroke-width="1"/>
    <path id="Path_11" data-name="Path 11" d="M13.256,55.955V40.438c0-3.482-.5-4.776,1.5-5.97l7.513-4.477c1.5-.5,2.2-.183,3.005,1.409" transform="translate(87.435 -177.661)" fill="none" stroke="#fff" stroke-linecap="round" stroke-linejoin="round" stroke-width="1"/>
    <path id="Path_12" data-name="Path 12" d="M22.06,30.023l11.175-6.251c1.707-1,2.658,1.018,2.915,2.225.692,2.818.8,2.946,1.208,4.826a3.75,3.75,0,0,1-.515,2.07c-.375.624-.29,1.155-.29,2.765" transform="translate(86.625 -177.075)" fill="none" stroke="#fff" stroke-linecap="round" stroke-linejoin="round" stroke-width="1"/>
    <path id="Path_13" data-name="Path 13" d="M35.745,27.133,18.955,37.548c-1.526.845-1.315,2.589-1.315,4.026v4.882" transform="translate(87.03 -177.413)" fill="none" stroke="#fff" stroke-linecap="round" stroke-linejoin="round" stroke-width="1"/>
    <path id="Path_14" data-name="Path 14" d="M13.644,46.179,22.9,51.413" transform="translate(87.394 -179.161)" fill="none" stroke="#fff" stroke-linecap="round" stroke-linejoin="round" stroke-width="1"/>
    <path id="Path_15" data-name="Path 15" d="M42.435,1.443V27.206" transform="translate(84.766 -175.04)" fill="none" stroke="#fff" stroke-linecap="round" stroke-linejoin="round" stroke-width="2"/>
    <path id="Path_16" data-name="Path 16" d="M58.733,44.85l-4.815,2.408a.909.909,0,0,0,0,1.626l4.409,2.2a.909.909,0,0,0,.813,0l4.493-2.247a.909.909,0,0,0,.035-1.607L61.033,45.77" transform="translate(83.764 -179.039)" fill="none" stroke="#fff" stroke-linecap="round" stroke-linejoin="round" stroke-width="1"/>
    <path id="Path_17" data-name="Path 17" d="M54.853,49.723a14.656,14.656,0,0,1,0,2.339c-.122.771.364,3.7,4.009,3.7" transform="translate(83.634 -179.487)" fill="none" stroke="#fff" stroke-linecap="round" stroke-linejoin="round" stroke-width="1"/>
    <path id="Path_18" data-name="Path 18" d="M64.077,49.28a16.9,16.9,0,0,0,0,2.741c.146.771-.437,3.7-4.811,3.7" transform="translate(83.23 -179.447)" fill="none" stroke="#fff" stroke-linecap="round" stroke-linejoin="round" stroke-width="1"/>
    <path id="Path_19" data-name="Path 19" d="M57.139,40.181c1.169.645,1.8,4.8,1.964,6.8.409-2.512,1.126-7.62.726-7.958" transform="translate(83.424 -178.503)" fill="none" stroke="#fff" stroke-linecap="round" stroke-linejoin="round" stroke-width="1"/>
    <path id="Path_20" data-name="Path 20" d="M55.4,41.513c1.574-3.384,3.5-2.616,4.458-2.232-2.062-2.429-3.435-2.19-4.345-1.958-2.063,1.033-2.446,3.119-3.5,4.614a.274.274,0,0,0,.167.392A2.737,2.737,0,0,0,55.4,41.513Z" transform="translate(83.895 -178.332)" fill="none" stroke="#fff" stroke-linecap="round" stroke-linejoin="round" stroke-width="1"/>
    <path id="Path_21" data-name="Path 21" d="M64.614,43.482c-3.209-1.907-4.363-.188-4.941.671.333-3.168,1.6-3.746,2.484-4.068,2.287-.31,3.779,1.2,5.49,1.838a.274.274,0,0,1,.083.418A2.737,2.737,0,0,1,64.614,43.482Z" transform="translate(83.192 -178.595)" fill="none" stroke="#fff" stroke-linecap="round" stroke-linejoin="round" stroke-width="1"/>
    <path id="Path_22" data-name="Path 22" d="M23.831,51.938V64.014" transform="translate(86.464 -179.696)" fill="none" stroke="#fff" stroke-width="1"/>
  </g>
</svg>
